<svg width="24" height="24" viewBox="0 0 24 24" fill="none" xmlns="http://www.w3.org/2000/svg">
<path d="M11.478 8.9052C9.8484 6.0084 8.1048 3.6456 7.9776 3.4716C6.66159 4.09414 5.50719 5.01228 4.60443 6.15442C3.70167 7.29655 3.07497 8.63179 2.7732 10.056C3.0204 10.0608 6.9516 10.1076 11.478 8.9052V8.9052ZM12.6516 12.0732C12.7746 12.0338 12.8983 11.9962 13.0224 11.9604C12.7827 11.4189 12.5278 10.8843 12.258 10.3572C7.4028 11.8116 2.7444 11.706 2.58 11.7012C2.5764 11.802 2.5716 11.9004 2.5716 12.0012C2.5716 14.424 3.4872 16.6344 4.9908 18.3036L4.9848 18.2964C4.9848 18.2964 7.5648 13.7196 12.6516 12.0732ZM6.2052 19.4328V19.428C6.1356 19.374 6.0612 19.3248 5.9916 19.266C6.1188 19.368 6.2052 19.4328 6.2052 19.4328V19.4328ZM9.7416 2.8464C9.73562 2.84808 9.72962 2.84968 9.7236 2.8512C9.7308 2.8488 9.7404 2.8488 9.7404 2.8488L9.7416 2.8464V2.8464ZM18.2268 4.9248C16.5079 3.40681 14.2932 2.56985 12 2.5716C11.2332 2.5716 10.4904 2.6652 9.7776 2.8368C9.9216 3.0288 11.6916 5.3796 13.3032 8.3376C16.8576 7.0068 18.2004 4.9632 18.2268 4.9248V4.9248ZM12 23.04C9.07242 23.0397 6.26485 21.8766 4.19474 19.8065C2.12463 17.7363 0.961515 14.9288 0.961197 12.0012C0.960882 10.5514 1.24618 9.11566 1.80079 7.7761C2.3554 6.43653 3.16846 5.21934 4.19354 4.19404C5.21862 3.16874 6.43563 2.35541 7.77508 1.80051C9.11452 1.24561 10.5502 0.959999 12 0.959999C13.4499 0.959999 14.8856 1.2456 16.2251 1.80048C17.5646 2.35537 18.7817 3.16868 19.8069 4.19396C20.8321 5.21925 21.6452 6.43643 22.2 7.776C22.7547 9.11558 23.0402 10.5513 23.04 12.0012C23.0397 14.929 21.8764 17.7367 19.806 19.8069C17.7357 21.877 14.9278 23.04 12 23.04V23.04ZM13.6032 13.5432C8.07 15.4716 6.2424 19.3488 6.2052 19.428C7.85813 20.7242 9.89824 21.4282 11.9988 21.4272C13.2632 21.429 14.515 21.1755 15.6792 20.682C15.54 19.8552 14.9916 16.9668 13.6644 13.5216C13.6441 13.5292 13.6237 13.5364 13.6032 13.5432V13.5432ZM14.028 9.744C14.2488 10.1916 14.4576 10.6488 14.6556 11.1108C14.7264 11.2728 14.7924 11.4372 14.8596 11.598C18.1152 11.1876 21.3216 11.8836 21.4272 11.9052C21.4077 9.75295 20.6508 7.67246 19.2828 6.0108C19.2612 6.0384 17.748 8.2224 14.028 9.744ZM15.4332 13.086C16.6704 16.4892 17.172 19.2564 17.268 19.8192C18.3385 19.0978 19.2494 18.1643 19.9444 17.0765C20.6394 15.9886 21.1037 14.7697 21.3084 13.4952C21.1212 13.4352 18.4812 12.5988 15.4332 13.086V13.086Z" fill="#FEFEFE"/>
</svg>
